{"title":"Two And A Half Men Season 10 HDTV XviD - DiGrX","uid":9095320,"size":4753151840,"categoryP":"video","categoryS":"tv_shows","magnet":"?xt=urn:btih:0135575fb713ab1d065ef33724759630b321eb32&amp;dn=Two+And+A+Half+Men+Season+10+HDTV+XviD+-+DiGrX&amp;tr=udp%3A%2F%2Ftracker.openbittorrent.com%3A80&amp;tr=udp%3A%2F%2Fopen.demonii.com%3A1337&amp;tr=udp%3A%2F%2Ftracker.coppersurfer.tk%3A6969&amp;tr=udp%3A%2F%2Fexodus.desync.com%3A6969","seeders":4,"leechers":2,"uploader":"dimigeor","files":24,"time":1382665135,"description":"Two And A Half Men Season 10 HDTV XviD - DiGrX\n\nAll episodes in XviD from HDTV\n\nCodec ID, Format: XVID, MPEG-4\nAspect ratio, Dimension: 16:9, 640x360\nAudio: MP3, 2 Channels\n\n\n-----------------------------------------------------------------------------------\n\n\nEpisode 1 example:\n\nGeneral\nComplete name                            : 10x01 Two and a Half Men - I Changed My Mind About the Milk HDTV.avi\nFormat                                   : AVI\nFormat/Info                              : Audio Video Interleave\nFile size                                : 186 MiB\nDuration                                 : 21mn 13s\nOverall bit rate mode                    : Variable\nOverall bit rate                         : 1 226 Kbps\nWriting application                      : MEncoder r33883\nWriting library                          : MPlayer\n\nVideo\nID                                       : 0\nFormat                                   : MPEG-4 Visual\nFormat profile                           : Simple@L3\nFormat settings, BVOP                    : No\nFormat settings, QPel                    : No\nFormat settings, GMC                     : No warppoints\nFormat settings, Matrix                  : Default (H.263)\nCodec ID                                 : XVID\nCodec ID/Hint                            : XviD\nDuration                                 : 21mn 13s\nBit rate                                 : 1 091 Kbps\nWidth                                    : 640 pixels\nHeight                                   : 360 pixels\nDisplay aspect ratio                     : 16:9\nFrame rate                               : 23.976 fps\nColor space                              : YUV\nChroma subsampling                       : 4:2:0\nBit depth                                : 8 bits\nScan type                                : Progressive\nCompression mode                         : Lossy\nBits/(Pixel*Frame)                       : 0.197\nStream size                              : 166 MiB (89%)\nWriting library                          : XviD 63\n\nAudio\nID                                       : 1\nFormat                                   : MPEG Audio\nFormat version                           : Version 1\nFormat profile                           : Layer 3\nMode                                     : Joint stereo\nMode extension                           : MS Stereo\nCodec ID                                 : 55\nCodec ID/Hint                            : MP3\nDuration                                 : 21mn 12s\nBit rate mode                            : Variable\nBit rate                                 : 122 Kbps\nChannel(s)                               : 2 channels\nSampling rate                            : 48.0 KHz\nCompression mode                         : Lossy\nStream size                              : 18.5 MiB (10%)\nAlignment                                : Aligned on interleaves\nInterleave, duration                     : 24 ms (0.58 video frame)\nInterleave, preload duration             : 481 ms\n\n","torrent":{"xt":"urn:btih:0135575fb713ab1d065ef33724759630b321eb32","amp;dn":"Two+And+A+Half+Men+Season+10+HDTV+XviD+-+DiGrX","amp;tr":["udp%3A%2F%2Ftracker.openbittorrent.com%3A80","udp%3A%2F%2Fopen.demonii.com%3A1337","udp%3A%2F%2Ftracker.coppersurfer.tk%3A6969","udp%3A%2F%2Fexodus.desync.com%3A6969"],"infoHash":"0135575fb713ab1d065ef33724759630b321eb32","infoHashBuffer":{"type":"Buffer","data":[1,53,87,95,183,19,171,29,6,94,243,55,36,117,150,48,179,33,235,50]},"announce":[],"urlList":[]}}